<svg xmlns="http://www.w3.org/2000/svg" enable-background="new 0 0 512 512" fill="#5a7da0" viewBox="0 0 512 512">
    <path d="M466 437h-34v-92c0-33.1-26.9-60-60-60h-72.9c-11 0-20-9-20-20l-.1-148.8c22.8-8.5 39-30.5 39-56.2 0-33.1-26.9-60-60-60s-60 26.9-60 60c0 23.6 13.7 44.1 33.6 53.9l-65.3 53.7c-4.6 3.8-7.3 9.5-7.3 15.4v94c0 11 9 20 20 20s20-9 20-20v-84.6l40-32.9.1 105.5c0 33.1 26.9 60 60 60H372c11 0 20 9 20 20v112c0 11 9 20 20 20h54c11 0 20-9 20-20s-9-20-20-20zM258 80c-11 0-20-9-20-20s9-20 20-20 20 9 20 20-9 20-20 20z"/>
    <path d="M187 472c-66.7 0-121-54.3-121-121 0-41.5 21-78.2 53-100v-45.9C64.1 230.8 26 286.5 26 351c0 88.8 72.2 161 161 161 84.1 0 153.3-64.8 160.4-147h-40.2c-7 60.1-58.2 107-120.2 107z"/>
</svg>
