<svg xmlns="http://www.w3.org/2000/svg" enable-background="new 0 0 512 512" fill="#5a7da0"  viewBox="0 0 512 512">
    <path d="M466 437h-34v-92c0-33.1-26.9-60-60-60h-72.9c-11 0-20-9-20-20l-.1-148.8c22.8-8.5 39-30.5 39-56.2 0-33.1-26.9-60-60-60s-60 26.9-60 60c0 23.6 13.7 44.1 33.6 53.9l-65.3 53.7c-4.6 3.8-7.3 9.5-7.3 15.4v94c0 11 9 20 20 20s20-9 20-20v-84.6l40-32.9.1 105.5c0 33.1 26.9 60 60 60H372c11 0 20 9 20 20v112c0 11 9 20 20 20h54c11 0 20-9 20-20s-9-20-20-20zM258 80c-11 0-20-9-20-20s9-20 20-20 20 9 20 20-9 20-20 20z"/>
    <path d="M187 472c-66.7 0-121-54.3-121-121 0-41.5 21-78.2 53-100v-45.9C64.1 230.8 26 286.5 26 351c0 88.8 72.2 161 161 161 84.1 0 153.3-64.8 160.4-147h-40.2c-7 60.1-58.2 107-120.2 107z"/>
    <g>
        <path d="M90.6 157.7c0-8.8 6.1-15.1 14.4-15.1 8.8 0 14.4 6.3 14.4 15.1 0 8.5-5.6 15.1-14.4 15.1-8.5 0-14.4-6.6-14.4-15.1zm6.1-34.8L93.3 6h23.4l-3.4 116.9H96.7z"/>
        <path d="M105 179.3c-11.9 0-20.9-9.3-20.9-21.6s9-21.6 20.9-21.6c12.1 0 20.9 9.1 20.9 21.6s-8.8 21.6-20.9 21.6zm0-30.2c-4.7 0-7.9 3.5-7.9 8.6 0 4.3 2.4 8.6 7.9 8.6 5.8 0 7.9-4.4 7.9-8.6 0-5.4-3-8.6-7.9-8.6zm14.6-19.7H90.4L86.6-.5h36.8l-3.8 129.9zm-16.6-13h3.9l3-103.9h-10l3.1 103.9z"/>
    </g>
</svg>
